# xmcd CD database file
#
# Track frame offsets:
#	150
#	20592
#	39537
#	64245
#	75948
#	97850
#	112122
#
# Disc length: 1822 seconds
#
# Revision: 1
# Processed by: cddbd v1.5.2PL0 Copyright (c) Steve Scherf et al.
# Submitted via: CDex 1.51
#
DISCID=4e071c07
DTITLE=Various Artist - Select A track-07
DYEAR=1900
DGENRE=Blues
TTITLE0=Amy Winehouse - Will You Still Love Me Tomorrow 2012
TTITLE1=Amy Winehouse - Valerie (68 version)
TTITLE2=Coldplay - Clocks sc
TTITLE3=Alan Jackson - She's Got The Rhythm (and i got the blues)
TTITLE4=Rolling Stones The - Undercover Of The Night
TTITLE5=Frank Sinatra - Summer Wind sc
TTITLE6=Metallica - For Whom The Bell Tolls
EXTD=
EXTT0=
EXTT1=
EXTT2=
EXTT3=
EXTT4=
EXTT5=
EXTT6=
PLAYORDER=
